<svg width="29" height="28" viewBox="0 0 29 28" fill="none" xmlns="http://www.w3.org/2000/svg">
<path d="M8.08219 19.833H20.7163C21.8246 19.833 22.3787 19.833 22.8303 19.6328C23.2285 19.4563 23.5693 19.1718 23.8142 18.8117C24.092 18.4031 24.1911 17.8579 24.3894 16.7675L25.9653 8.09997C26.034 7.72205 26.0684 7.53308 26.0153 7.38554C25.9687 7.25609 25.8779 7.14727 25.7589 7.07829C25.6232 6.99968 25.4312 6.99967 25.047 6.99967H6.33219M2.83203 2.33301H4.36784C4.65097 2.33301 4.79254 2.33301 4.90704 2.38472C5.00795 2.43031 5.09381 2.50367 5.15457 2.59624C5.22351 2.70127 5.24559 2.8411 5.28975 3.12078L8.54098 23.7119C8.58514 23.9916 8.60722 24.1314 8.67616 24.2364C8.73692 24.329 8.82278 24.4024 8.92369 24.448C9.03819 24.4997 9.17976 24.4997 9.46289 24.4997H22.6654" stroke="#7B7B75" stroke-width="2" stroke-linecap="round" stroke-linejoin="round"/>
</svg>
