<svg width="28" height="28" viewBox="0 0 28 28" fill="none" xmlns="http://www.w3.org/2000/svg">
<path d="M18.6668 10.4997V6.99967C18.6668 4.42235 16.5774 2.33301 14.0001 2.33301C11.4228 2.33301 9.33344 4.42235 9.33344 6.99968V10.4997M4.19078 12.077L3.49078 19.5436C3.29175 21.6666 3.19223 22.7281 3.5445 23.548C3.85395 24.2682 4.39624 24.8637 5.08446 25.2391C5.86789 25.6663 6.93403 25.6663 9.06633 25.6663H18.9339C21.0662 25.6663 22.1323 25.6663 22.9157 25.2391C23.604 24.8637 24.1463 24.2682 24.4557 23.548C24.808 22.7281 24.7085 21.6666 24.5094 19.5436L23.8094 12.077C23.6414 10.2842 23.5573 9.38788 23.1542 8.7102C22.7991 8.11336 22.2745 7.63564 21.6471 7.33783C20.9348 6.99968 20.0345 6.99968 18.2339 6.99968L9.76633 6.99968C7.96574 6.99968 7.06545 6.99967 6.35309 7.33782C5.72571 7.63564 5.20111 8.11336 4.84604 8.7102C4.44288 9.38788 4.35884 10.2842 4.19078 12.077Z" stroke="#4C4C4C" stroke-width="2" stroke-linecap="round" stroke-linejoin="round"/>
</svg>
